<svg xmlns="http://www.w3.org/2000/svg" width="45.032" height="45.032" viewBox="0 0 45.032 45.032">
  <path id="Icon_awesome-pencil-alt" data-name="Icon awesome-pencil-alt" d="M43.793,12.5l-4.055,4.055a1.056,1.056,0,0,1-1.5,0L28.48,6.789a1.056,1.056,0,0,1,0-1.5l4.055-4.055a4.231,4.231,0,0,1,5.972,0l5.286,5.286A4.215,4.215,0,0,1,43.793,12.5ZM25,8.777,1.9,31.874.035,42.561A2.114,2.114,0,0,0,2.48,45.006l10.687-1.873,23.1-23.1a1.056,1.056,0,0,0,0-1.5L26.5,8.777a1.067,1.067,0,0,0-1.5,0ZM10.915,29.9a1.226,1.226,0,0,1,0-1.742L24.46,14.608A1.231,1.231,0,1,1,26.2,16.35L12.656,29.9a1.226,1.226,0,0,1-1.742,0Zm-3.175,7.4h4.222v3.193l-5.673.994L3.553,38.743l.994-5.673H7.74Z" transform="translate(-0.002 -0.005)" fill="#f98a2c"/>
</svg>
