<?xml version="1.0" encoding="UTF-8"?>
<svg width="14px" height="14px" viewBox="0 0 14 14" version="1.1" xmlns="http://www.w3.org/2000/svg" xmlns:xlink="http://www.w3.org/1999/xlink">
    <!-- Generator: Sketch 50.2 (55047) - http://www.bohemiancoding.com/sketch -->
    <title>icon_close</title>
    <desc>Created with Sketch.</desc>
    <defs></defs>
    <g id="Page-1" stroke="none" stroke-width="1" fill="none" fill-rule="evenodd">
        <g id="icon" transform="translate(-158.000000, -13.000000)">
            <path d="M165,19.2119464 L170.049839,14.1621078 C170.265761,13.946185 170.613562,13.943905 170.826672,14.1570154 C171.039782,14.3701257 171.037502,14.7179259 170.821579,14.9338487 L165.720907,20.0345208 L170.774587,25.0882006 C170.987698,25.301311 170.970508,25.6640205 170.736194,25.8983351 C170.501879,26.1326497 170.139169,26.1498391 169.926059,25.9367287 L165,21.0106697 L160.073941,25.9367287 C159.860831,26.1498391 159.498121,26.1326497 159.263806,25.8983351 C159.029492,25.6640205 159.012302,25.301311 159.225413,25.0882006 L164.279093,20.0345208 L159.178421,14.9338487 C158.962498,14.7179259 158.960218,14.3701257 159.173328,14.1570154 C159.386438,13.943905 159.734239,13.946185 159.950161,14.1621078 L165,19.2119464 Z" id="Combined-Shape" stroke="#333333" stroke-width="0.5" fill="#333333" fill-rule="nonzero"></path>
            <g id="スライス" transform="translate(9.000000, 11.000000)"></g>
        </g>
    </g>
</svg>