<!--?xml version="1.0" encoding="utf-8"?-->
<!-- Generator: Adobe Illustrator 22.1.0, SVG Export Plug-In . SVG Version: 6.00 Build 0)  -->
<svg version="1.1" id="_x35_" xmlns="http://www.w3.org/2000/svg" xmlns:xlink="http://www.w3.org/1999/xlink" x="0px" y="0px" viewBox="0 0 800 800" style="width: 463px;" xml:space="preserve">
<style type="text/css">
	.st0{fill:#040000;}
</style>
<g>
	<path class="st0" d="M798,389.452h-39.224C753.26,199.559,600.448,46.752,410.56,41.23V2h-21.127v39.23
		c-189.9,5.522-342.687,158.328-348.215,348.222H2v21.097h39.218C46.74,600.454,199.533,753.273,389.44,758.776V798h21.127v-39.224
		c189.887-5.503,342.693-158.322,348.209-348.228H798V389.452z M608.178,191.822c50.998,51.051,82.956,120.485,85.715,197.63
		H584.921v8.134h-94.808v-11.054h-5.636v11.054H470.87v-11.054h-5.631v11.054h-13.614v-11.054h-5.623v11.054h-13.627v-11.054h-5.623
		v11.054h-24.344v-24.33h11.05v-5.637h-11.05v-13.602h11.05v-5.624h-11.05v-13.626h11.05v-5.637h-11.05v-13.613h11.05v-5.624h-11.05
		V215.09h8.153V106.131C487.706,108.866,557.138,140.83,608.178,191.822z M191.809,191.822
		c51.046-50.992,120.479-82.956,197.624-85.691V215.09h8.147v94.802h-11.037v5.624h11.037v13.613h-11.037v5.637h11.037v13.626
		h-11.037v5.624h11.037v13.602h-11.037v5.637h11.037v24.33h-24.336v-11.054h-5.631v11.054h-13.614v-11.054h-5.629v11.054h-13.615
		v-11.054h-5.624v11.054h-13.613v-11.054h-5.636v11.054h-94.809v-8.134H106.114C108.866,312.307,140.818,242.873,191.809,191.822z
		 M191.809,608.19c-50.992-51.04-82.944-120.497-85.696-197.642l108.958,0.025v-8.147h94.809v11.044h5.636v-11.044h13.613v11.044
		h5.624v-11.044h13.615v11.044h5.629v-11.044h13.614v11.044h5.631v-11.044h24.336v24.332h-11.037v5.636h11.037v13.614h-11.037v5.623
		h11.037v13.602h-11.037v5.637h11.037v13.614h-11.037v5.648h11.037v94.79h-8.14v108.984
		C312.288,691.153,242.856,659.17,191.809,608.19z M608.178,608.19c-51.04,50.98-120.46,82.962-197.611,85.715V584.921h-8.16v-94.79
		h11.05v-5.648h-11.05V470.87h11.05v-5.637h-11.05v-13.602h11.05v-5.623h-11.05v-13.614h11.05v-5.636h-11.05v-24.332h24.344v11.044
		h5.623v-11.044h13.627v11.044h5.623v-11.044h13.614v11.044h5.631v-11.044h13.608v11.044h5.636v-11.044h94.808v8.122h108.972
		C691.134,487.693,659.176,557.15,608.178,608.19z" style="opacity: 1; fill: rgb(249, 138, 44);"></path>
</g>
</svg>
