<svg xmlns="http://www.w3.org/2000/svg" width="162" height="162" viewBox="0 0 162 162">
  <g id="グループ_14" data-name="グループ 14" transform="translate(-75 -360)">
    <g id="Circle_Button" data-name="Circle Button" transform="translate(75 360)">
      <rect id="Area" width="162" height="162" rx="81" fill="#1da1f2"/>
      <g id="Icon" transform="translate(47.768 47.768)">
        <rect id="Area-2" data-name="Area" width="66" height="66" transform="translate(0.232 0.232)" fill="#fff" opacity="0"/>
        <g id="Icon-2" data-name="Icon" transform="translate(1.207 6.939)">
          <path id="Path" d="M64.379,3.02a31.463,31.463,0,0,1-9.046,4.408A12.906,12.906,0,0,0,32.69,16.07v2.881A30.708,30.708,0,0,1,6.762,5.9s-11.524,25.928,14.4,37.452A33.53,33.53,0,0,1,1,49.114c25.928,14.4,57.618,0,57.618-33.13a13.057,13.057,0,0,0-.23-2.391A22.23,22.23,0,0,0,64.379,3.02Z" transform="translate(-1 -2.99)" fill="#fff" stroke="#fff" stroke-linecap="round" stroke-linejoin="round" stroke-width="2"/>
        </g>
      </g>
    </g>
  </g>
</svg>
